# xmcd CD database file
#
# Track frame offsets:
#	150
#	19514
#	40788
#	61909
#	78260
#	102111
#	117326
#	133825
#	154692
#
# Disc length: 2346 seconds
#
# Revision: 0
# Processed by: cddbd v1.5.2PL0 Copyright (c) Steve Scherf et al.
# Submitted via: CDex 1.70beta2
#
DISCID=66092809
DTITLE=MYSTONS - 3 (2011 ALBUM)
DYEAR=2011
DGENRE=Sludge Metal
TTITLE0=MAMMOTH
TTITLE1=MOURNING SKY
TTITLE2=MAN IN THE WHEEL
TTITLE3=CRUSHER
TTITLE4=LIFE IN A TOMB
TTITLE5=DANCING WITH DEMONS
TTITLE6=DEATH PILLS
TTITLE7=PRINCESS OF DARK
TTITLE8=GATHERING
EXTD=YEAR: 2011
EXTT0=
EXTT1=
EXTT2=
EXTT3=
EXTT4=
EXTT5=
EXTT6=
EXTT7=
EXTT8=
PLAYORDER=
